<?xml version="1.0" encoding="iso-8859-1"?>
<!-- Generator: Adobe Illustrator 18.0.0, SVG Export Plug-In . SVG Version: 6.00 Build 0)  -->
<!DOCTYPE svg PUBLIC "-//W3C//DTD SVG 1.1//EN" "http://www.w3.org/Graphics/SVG/1.1/DTD/svg11.dtd">
<svg version="1.1" id="Capa_1" xmlns="http://www.w3.org/2000/svg" xmlns:xlink="http://www.w3.org/1999/xlink" x="0px" y="0px"
	 viewBox="0 0 258.406 258.406" style="enable-background:new 0 0 258.406 258.406;" xml:space="preserve">
<g>
	<path d="M219.544,145.748c0-11.706-6.733-21.862-16.526-26.819c4.779-5.693,7.252-12.841,6.984-20.361
		c-0.567-15.967-14.285-28.957-30.579-28.957h-23.53V32.339C155.893,14.507,141.386,0,123.554,0S91.215,14.507,91.215,32.339v39.303
		c-30.026,7.448-52.353,34.617-52.353,66.914v50.905c0,38.017,30.929,68.945,68.945,68.945h61.782
		c13.916,0,25.197-10.694,25.683-24.347c0.194-5.467-1.336-10.7-4.35-15.112c10.105-4.845,17.1-15.175,17.1-27.109
		c0-7.012-2.421-13.464-6.461-18.582C212.137,168.601,219.544,158.026,219.544,145.748z M105.215,32.339
		c0-10.112,8.227-18.339,18.339-18.339s18.339,8.227,18.339,18.339v37.272h-34.085c-0.869,0-1.731,0.034-2.592,0.066V32.339z
		 M189.499,161.793h-11.523h-52.083c-3.866,0-7,3.134-7,7s3.134,7,7,7h52.083c8.848,0,16.046,7.198,16.046,16.046
		s-7.198,16.045-16.046,16.045h-52.083c-3.866,0-7,3.134-7,7s3.134,7,7,7h44.134c3.083,0,5.962,1.223,8.104,3.442
		c2.141,2.218,3.259,5.143,3.149,8.235c-0.213,5.979-5.458,10.844-11.691,10.844h-61.782c-30.297,0-54.945-24.648-54.945-54.945
		v-50.905c0-30.297,24.648-54.945,54.945-54.945h71.616c8.843,0,16.285,6.933,16.587,15.454c0.157,4.405-1.437,8.571-4.487,11.732
		c-3.053,3.163-7.154,4.905-11.548,4.905h-54.083c-3.866,0-7,3.134-7,7s3.134,7,7,7h63.605c8.848,0,16.045,7.198,16.045,16.045
		S198.346,161.793,189.499,161.793z"/>
</g>
<g>
</g>
<g>
</g>
<g>
</g>
<g>
</g>
<g>
</g>
<g>
</g>
<g>
</g>
<g>
</g>
<g>
</g>
<g>
</g>
<g>
</g>
<g>
</g>
<g>
</g>
<g>
</g>
<g>
</g>
</svg>
