<?xml version="1.0" encoding="iso-8859-1"?>
<!-- Generator: Adobe Illustrator 19.0.0, SVG Export Plug-In . SVG Version: 6.00 Build 0)  -->
<svg version="1.1" id="Capa_1" xmlns="http://www.w3.org/2000/svg" xmlns:xlink="http://www.w3.org/1999/xlink" x="0px" y="0px"
	 viewBox="0 0 512 512" style="enable-background:new 0 0 512 512;" xml:space="preserve">
<g>
	<g>
		<path d="M512,298.333v-84.667l-69.42-13.675c-3.783-12.585-8.832-24.739-15.083-36.309l38.724-58.086L406.404,45.78
			l-58.086,38.724c-11.57-6.251-23.724-11.3-36.309-15.083L298.333,0h-84.667l-13.675,69.42
			c-12.585,3.783-24.739,8.832-36.309,15.083L105.596,45.78L45.78,105.596l38.724,58.086c-6.251,11.57-11.3,23.724-15.083,36.309
			L0,213.667v84.667l69.42,13.675c3.783,12.585,8.832,24.739,15.083,36.309L45.78,406.404l59.815,59.816l58.087-38.723
			c11.57,6.25,23.725,11.299,36.309,15.083L213.667,512h84.667l13.675-69.42c12.584-3.783,24.739-8.832,36.309-15.083l58.087,38.723
			l59.815-59.816l-38.724-58.086c6.251-11.57,11.3-23.724,15.083-36.309L512,298.333z M427.617,402.582l-25.035,25.035
			l-53.279-35.518c-23.09,13.995-31.59,18.418-63.088,26.2L273.667,482h-35.333l-12.549-63.702
			c-26.285-6.494-35.378-9.404-63.088-26.2l-53.279,35.518l-25.035-25.035l35.519-53.279c-14.119-23.292-18.492-31.89-26.2-63.088
			L30,273.667v-35.333l63.702-12.549c6.553-26.524,9.564-35.644,26.2-63.088l-35.519-53.279l25.035-25.035l53.279,35.519
			c23.292-14.119,31.89-18.492,63.088-26.2L238.333,30h35.333l12.549,63.702c26.524,6.553,35.644,9.564,63.088,26.2l53.279-35.519
			l25.035,25.035l-35.519,53.279c14.119,23.292,18.492,31.89,26.2,63.088L482,238.333v35.333l-63.702,12.549
			c-6.553,26.524-9.564,35.644-26.2,63.088L427.617,402.582z"/>
	</g>
</g>
<g>
	<g>
		<path d="M256,151c-57.897,0-105,47.103-105,105c0,57.897,47.103,105,105,105c57.897,0,105-47.103,105-105
			C361,198.103,313.897,151,256,151z M256,331c-41.355,0-75-33.645-75-75c0-41.355,33.645-75,75-75s75,33.645,75,75
			S297.355,331,256,331z"/>
	</g>
</g>
<g>
	<g>
		<path d="M256,211c-24.813,0-45,20.187-45,45s20.187,45,45,45s45-20.187,45-45S280.813,211,256,211z M256,271
			c-8.271,0-15-6.729-15-15s6.729-15,15-15s15,6.729,15,15S264.271,271,256,271z"/>
	</g>
</g>
<g>
</g>
<g>
</g>
<g>
</g>
<g>
</g>
<g>
</g>
<g>
</g>
<g>
</g>
<g>
</g>
<g>
</g>
<g>
</g>
<g>
</g>
<g>
</g>
<g>
</g>
<g>
</g>
<g>
</g>
</svg>
